<svg width="23" height="23" viewBox="0 0 23 23" fill="#8566FF" xmlns="http://www.w3.org/2000/svg">
<path d="M0 21.4429C0 20.5829 0.697155 19.8857 1.55714 19.8857H21.4429C22.3028 19.8857 23 20.5829 23 21.4429C23 22.3028 22.3028 23 21.4429 23H1.55714C0.697155 23 0 22.3028 0 21.4429ZM15.7317 2C15.7317 0.895432 14.8363 0 13.7317 0H9.26829C8.16372 0 7.26829 0.895431 7.26829 2V8.02499C7.26829 8.84999 6.59949 9.51878 5.7745 9.51878C4.4179 9.51878 3.7637 11.1812 4.75645 12.1057L10.137 17.1165C10.9049 17.8317 12.0951 17.8317 12.863 17.1165L18.2435 12.1057C19.2363 11.1812 18.5821 9.51878 17.2255 9.51878C16.4005 9.51878 15.7317 8.84998 15.7317 8.02498V2Z" fill="white"/>
</svg>
