<svg width="22" height="22" viewBox="0 0 22 22" fill="none" xmlns="http://www.w3.org/2000/svg">
<path d="M11.9163 20.1669H8.24967C8.00656 20.1669 7.7734 20.0703 7.60149 19.8984C7.42959 19.7265 7.33301 19.4933 7.33301 19.2502V13.5669H5.49967C5.25656 13.5669 5.0234 13.4703 4.85149 13.2984C4.67959 13.1265 4.58301 12.8933 4.58301 12.6502V9.3502C4.58301 9.10709 4.67959 8.87393 4.85149 8.70202C5.0234 8.53011 5.25656 8.43354 5.49967 8.43354H7.33301V6.8752C7.39726 5.47853 8.01191 4.16411 9.04257 3.21934C10.0732 2.27458 11.436 1.77633 12.833 1.83354H15.583C15.8261 1.83354 16.0593 1.93011 16.2312 2.10202C16.4031 2.27393 16.4997 2.50709 16.4997 2.7502V6.0502C16.4997 6.29332 16.4031 6.52648 16.2312 6.69838C16.0593 6.87029 15.8261 6.96687 15.583 6.96687H12.833V8.43354H15.583C15.7245 8.43246 15.8644 8.46418 15.9916 8.52621C16.1189 8.58823 16.23 8.67887 16.3163 8.79104C16.4017 8.90488 16.4594 9.03704 16.4849 9.17706C16.5103 9.31707 16.5029 9.46109 16.463 9.5977L15.5463 12.8977C15.4909 13.096 15.3703 13.2698 15.204 13.3912C15.0377 13.5126 14.8354 13.5745 14.6297 13.5669H12.833V19.2502C12.833 19.4933 12.7364 19.7265 12.5645 19.8984C12.3926 20.0703 12.1595 20.1669 11.9163 20.1669ZM9.16634 18.3335H10.9997V12.6502C10.9997 12.4071 11.0963 12.1739 11.2682 12.002C11.4401 11.8301 11.6732 11.7335 11.9163 11.7335H13.9697L14.373 10.2669H11.9163C11.6732 10.2669 11.4401 10.1703 11.2682 9.99838C11.0963 9.82647 10.9997 9.59332 10.9997 9.3502V6.8752C11.0232 6.40503 11.2267 5.96194 11.568 5.6377C11.9093 5.31347 12.3623 5.13295 12.833 5.13354H14.6663V3.66687H12.833C11.9226 3.6114 11.027 3.91715 10.3406 4.51778C9.65414 5.11841 9.23222 5.96547 9.16634 6.8752V9.3502C9.16634 9.59332 9.06976 9.82647 8.89786 9.99838C8.72595 10.1703 8.49279 10.2669 8.24967 10.2669H6.41634V11.7335H8.24967C8.49279 11.7335 8.72595 11.8301 8.89786 12.002C9.06976 12.1739 9.16634 12.4071 9.16634 12.6502V18.3335Z" fill="#344FA1"/>
</svg>
