<svg width="66" height="66" viewBox="0 0 66 66" fill="none" xmlns="http://www.w3.org/2000/svg">
<path d="M22.7344 40.3704C22.2284 40.3704 21.8874 40.4199 21.7114 40.4694V43.7089C21.9204 43.7584 22.1817 43.7721 22.5419 43.7721C23.8592 43.7721 24.6704 43.1066 24.6704 41.9819C24.6704 40.9754 23.9719 40.3704 22.7344 40.3704ZM32.3237 40.4034C31.7737 40.4034 31.4162 40.4529 31.2044 40.5024V47.6799C31.4162 47.7294 31.7572 47.7294 32.0652 47.7294C34.3119 47.7459 35.7749 46.5084 35.7749 43.8904C35.7914 41.6079 34.4577 40.4034 32.3237 40.4034Z" fill="black"/>
<path d="M38.5 5.5H16.5C15.0413 5.5 13.6424 6.07946 12.6109 7.11091C11.5795 8.14236 11 9.54131 11 11V55C11 56.4587 11.5795 57.8576 12.6109 58.8891C13.6424 59.9205 15.0413 60.5 16.5 60.5H49.5C50.9587 60.5 52.3576 59.9205 53.3891 58.8891C54.4205 57.8576 55 56.4587 55 55V22L38.5 5.5ZM26.1195 44.5225C25.2698 45.32 24.0157 45.6775 22.5555 45.6775C22.2724 45.6806 21.9894 45.664 21.7085 45.628V49.5495H19.25V38.7255C20.3595 38.56 21.4806 38.4846 22.6022 38.5C24.134 38.5 25.223 38.7915 25.9573 39.3773C26.6558 39.9328 27.1287 40.843 27.1287 41.9155C27.126 42.9935 26.7685 43.9038 26.1195 44.5225ZM36.5888 48.2487C35.4338 49.2085 33.6765 49.665 31.5288 49.665C30.2418 49.665 29.3315 49.5825 28.7127 49.5V38.7282C29.8227 38.5663 30.9434 38.4899 32.065 38.5C34.1467 38.5 35.4998 38.874 36.5557 39.6715C37.697 40.5185 38.412 41.8688 38.412 43.8075C38.412 45.9058 37.6448 47.355 36.5888 48.2487ZM46.75 40.6175H42.537V43.1227H46.475V45.1413H42.537V49.5522H40.0455V38.5825H46.75V40.6175ZM38.5 24.75H35.75V11L49.5 24.75H38.5Z" fill="#344FA1"/>
</svg>
