<svg width="68" height="40" viewBox="0 0 68 40" fill="none" xmlns="http://www.w3.org/2000/svg">
<rect width="68" height="40" rx="15" fill="#344FA1"/>
<path d="M13.1371 28V12.352H18.5131C19.3771 12.352 20.1851 12.44 20.9371 12.616C21.6891 12.776 22.3451 13.056 22.9051 13.456C23.4651 13.84 23.9051 14.36 24.2251 15.016C24.5611 15.656 24.7291 16.448 24.7291 17.392C24.7291 18.304 24.5611 19.096 24.2251 19.768C23.9051 20.44 23.4651 20.992 22.9051 21.424C22.3451 21.856 21.6971 22.176 20.9611 22.384C20.2251 22.592 19.4411 22.696 18.6091 22.696H16.6651V28H13.1371ZM16.6651 19.888H18.3931C20.3131 19.888 21.2731 19.056 21.2731 17.392C21.2731 16.576 21.0171 16 20.5051 15.664C19.9931 15.328 19.2571 15.16 18.2971 15.16H16.6651V19.888ZM27.4339 28V12.352H33.0739C33.9059 12.352 34.6819 12.432 35.4019 12.592C36.1379 12.752 36.7779 13.024 37.3219 13.408C37.8659 13.776 38.2979 14.272 38.6179 14.896C38.9379 15.52 39.0979 16.296 39.0979 17.224C39.0979 18.376 38.8419 19.328 38.3299 20.08C37.8339 20.816 37.1619 21.368 36.3139 21.736L39.8659 28H35.9059L32.9059 22.36H30.9619V28H27.4339ZM30.9619 19.552H32.7859C33.7139 19.552 34.4179 19.36 34.8979 18.976C35.3939 18.576 35.6419 17.992 35.6419 17.224C35.6419 16.456 35.3939 15.92 34.8979 15.616C34.4179 15.312 33.7139 15.16 32.7859 15.16H30.9619V19.552ZM48.5127 28.288C47.4567 28.288 46.4887 28.104 45.6087 27.736C44.7447 27.352 44.0007 26.808 43.3767 26.104C42.7527 25.4 42.2647 24.544 41.9127 23.536C41.5767 22.528 41.4087 21.384 41.4087 20.104C41.4087 18.824 41.5767 17.688 41.9127 16.696C42.2647 15.688 42.7527 14.848 43.3767 14.176C44.0007 13.488 44.7447 12.968 45.6087 12.616C46.4887 12.248 47.4567 12.064 48.5127 12.064C49.5687 12.064 50.5287 12.248 51.3927 12.616C52.2727 12.968 53.0247 13.488 53.6487 14.176C54.2727 14.864 54.7527 15.712 55.0887 16.72C55.4407 17.712 55.6167 18.84 55.6167 20.104C55.6167 21.384 55.4407 22.528 55.0887 23.536C54.7527 24.544 54.2727 25.4 53.6487 26.104C53.0247 26.808 52.2727 27.352 51.3927 27.736C50.5287 28.104 49.5687 28.288 48.5127 28.288ZM48.5127 25.24C49.5847 25.24 50.4327 24.784 51.0567 23.872C51.6807 22.944 51.9927 21.688 51.9927 20.104C51.9927 18.536 51.6807 17.312 51.0567 16.432C50.4327 15.552 49.5847 15.112 48.5127 15.112C47.4407 15.112 46.5927 15.552 45.9687 16.432C45.3447 17.312 45.0327 18.536 45.0327 20.104C45.0327 21.688 45.3447 22.944 45.9687 23.872C46.5927 24.784 47.4407 25.24 48.5127 25.24Z" fill="white"/>
</svg>
