<svg width="21" height="21" viewBox="0 0 21 21" fill="none" xmlns="http://www.w3.org/2000/svg">
<path d="M7.44615 17.4998H7.37615C5.96596 17.4875 4.57617 17.1617 3.3074 16.5461C3.07401 16.4365 2.88185 16.255 2.75904 16.0283C2.63623 15.8015 2.58922 15.5415 2.6249 15.2861C2.6637 15.029 2.78274 14.7907 2.96501 14.6053C3.14729 14.4199 3.3835 14.2968 3.6399 14.2536C4.42618 14.1487 5.1826 13.8836 5.8624 13.4748C4.68216 12.5521 3.77355 11.3272 3.23286 9.93004C2.69217 8.53287 2.53954 7.01545 2.79115 5.53858C2.82526 5.30466 2.92587 5.08545 3.08099 4.90706C3.23611 4.72867 3.43922 4.5986 3.66615 4.53233C3.88692 4.463 4.1232 4.46004 4.34564 4.52381C4.56809 4.58759 4.7669 4.7153 4.9174 4.89109C5.4284 5.56115 6.07055 6.12008 6.80469 6.53378C7.53882 6.94748 8.34955 7.20728 9.1874 7.29733C9.22742 6.26646 9.67043 5.29246 10.4211 4.58483C10.796 4.22589 11.2385 3.94513 11.723 3.75893C12.2074 3.57273 12.7241 3.4848 13.2429 3.50027C13.7616 3.51575 14.2721 3.63431 14.7446 3.84906C15.2171 4.0638 15.6421 4.37043 15.9949 4.75108C16.0868 4.83234 16.201 4.88413 16.3227 4.89973C16.4444 4.91533 16.568 4.89403 16.6774 4.83859C16.886 4.74019 17.1183 4.70315 17.3472 4.73179C17.5761 4.76042 17.7921 4.85356 17.9701 5.00032C18.148 5.14709 18.2806 5.34143 18.3523 5.56068C18.4239 5.77993 18.4318 6.01504 18.3749 6.23858C18.1731 7.06994 17.7907 7.84665 17.2549 8.51358C17.1368 11.0027 16.0394 13.3443 14.202 15.0276C12.3645 16.711 9.9361 17.5996 7.44615 17.4998ZM7.44615 15.7498H7.51615C8.53348 15.7848 9.54764 15.6175 10.4998 15.2576C11.452 14.8977 12.3233 14.3524 13.0632 13.6532C13.803 12.9541 14.3967 12.115 14.8098 11.1847C15.223 10.2544 15.4473 9.25127 15.4699 8.23358C15.4843 7.95468 15.5994 7.69046 15.7936 7.48984C16.0071 7.21968 16.1891 6.92612 16.3361 6.61483C16.0209 6.61543 15.7091 6.5495 15.4211 6.42133C15.1332 6.29317 14.8755 6.10567 14.6649 5.87108C14.4624 5.67032 14.2219 5.51196 13.9575 5.40529C13.6931 5.29862 13.41 5.24577 13.1249 5.24983C12.8369 5.24239 12.5503 5.29189 12.2816 5.3955C12.0128 5.49911 11.7671 5.65478 11.5586 5.85359C11.2774 6.12046 11.0712 6.45652 10.9606 6.82813C10.8501 7.19974 10.839 7.59387 10.9286 7.97108L11.1561 8.96858L10.1324 9.03858C9.08335 9.12413 8.02825 8.98063 7.04016 8.61802C6.05207 8.25542 5.1546 7.68238 4.4099 6.93858C4.37796 8.09043 4.6661 9.22857 5.24228 10.2265C5.81846 11.2244 6.66011 12.0429 7.67365 12.5911L8.5049 13.0636L7.95365 13.8511C7.3575 14.6329 6.54068 15.2181 5.60865 15.5311C6.20655 15.6809 6.82102 15.7544 7.4374 15.7498H7.44615Z" fill="#344FA1"/>
</svg>
