<svg width="617" height="422" viewBox="0 0 617 422" fill="none" xmlns="http://www.w3.org/2000/svg">
<g filter="url(#filter0_b)">
<rect x="414" y="290" width="96" height="89" rx="44.5" fill="#001C43"/>
</g>
<g filter="url(#filter1_b)">
<rect width="89" height="88" rx="44" fill="#001C43"/>
</g>
<g filter="url(#filter2_b)">
<rect x="1" y="22" width="583" height="400" rx="68" fill="white" fill-opacity="0.35"/>
<rect x="1.5" y="22.5" width="582" height="399" rx="67.5" stroke="white"/>
</g>
<rect x="45.5" y="61.5" width="495" height="305" rx="70.5" fill="#F1F3F9" stroke="white"/>
<path d="M133.772 190V166.528H148.46V170.992H139.064V175.708H147.056V180.136H139.064V185.536H148.82V190H133.772ZM153.063 190V172.144H157.383L157.743 174.412H157.887C158.655 173.692 159.495 173.068 160.407 172.54C161.319 171.988 162.387 171.712 163.611 171.712C165.555 171.712 166.959 172.348 167.823 173.62C168.711 174.892 169.155 176.656 169.155 178.912V190H163.863V179.596C163.863 178.3 163.683 177.412 163.323 176.932C162.987 176.452 162.435 176.212 161.667 176.212C160.995 176.212 160.419 176.368 159.939 176.68C159.459 176.968 158.931 177.388 158.355 177.94V190H153.063ZM180.54 190.432C179.436 190.432 178.488 190.264 177.696 189.928C176.928 189.592 176.292 189.124 175.788 188.524C175.308 187.924 174.948 187.204 174.708 186.364C174.492 185.5 174.384 184.552 174.384 183.52V176.284H171.936V172.36L174.672 172.144L175.284 167.392H179.676V172.144H183.96V176.284H179.676V183.448C179.676 184.456 179.88 185.188 180.288 185.644C180.72 186.076 181.284 186.292 181.98 186.292C182.268 186.292 182.556 186.256 182.844 186.184C183.156 186.112 183.432 186.028 183.672 185.932L184.5 189.784C184.02 189.928 183.456 190.072 182.808 190.216C182.16 190.36 181.404 190.432 180.54 190.432ZM194.805 190.432C193.533 190.432 192.345 190.228 191.241 189.82C190.137 189.388 189.177 188.776 188.361 187.984C187.545 187.168 186.909 186.184 186.453 185.032C185.997 183.88 185.769 182.56 185.769 181.072C185.769 179.632 186.009 178.336 186.489 177.184C186.969 176.008 187.593 175.024 188.361 174.232C189.153 173.416 190.053 172.792 191.061 172.36C192.069 171.928 193.113 171.712 194.193 171.712C195.465 171.712 196.569 171.928 197.505 172.36C198.465 172.792 199.257 173.392 199.881 174.16C200.529 174.928 201.009 175.84 201.321 176.896C201.633 177.928 201.789 179.056 201.789 180.28C201.789 180.76 201.765 181.216 201.717 181.648C201.669 182.08 201.621 182.404 201.573 182.62H190.881C191.121 183.916 191.649 184.876 192.465 185.5C193.305 186.1 194.325 186.4 195.525 186.4C196.797 186.4 198.081 186.004 199.377 185.212L201.141 188.416C200.229 189.04 199.209 189.532 198.081 189.892C196.977 190.252 195.885 190.432 194.805 190.432ZM190.845 179.128H197.289C197.289 178.12 197.061 177.304 196.605 176.68C196.149 176.056 195.381 175.744 194.301 175.744C193.461 175.744 192.717 176.02 192.069 176.572C191.445 177.124 191.037 177.976 190.845 179.128ZM205.445 190V172.144H209.765L210.125 175.276H210.269C210.917 174.052 211.697 173.152 212.609 172.576C213.521 172 214.433 171.712 215.345 171.712C215.849 171.712 216.257 171.748 216.569 171.82C216.905 171.868 217.205 171.952 217.469 172.072L216.605 176.644C216.269 176.548 215.957 176.476 215.669 176.428C215.381 176.38 215.045 176.356 214.661 176.356C213.989 176.356 213.281 176.596 212.537 177.076C211.817 177.556 211.217 178.408 210.737 179.632V190H205.445ZM236.68 190.432C233.632 190.432 231.304 189.532 229.696 187.732C228.088 185.932 227.284 183.064 227.284 179.128V166.528H232.612V179.668C232.612 181.972 232.96 183.58 233.656 184.492C234.352 185.404 235.36 185.86 236.68 185.86C238 185.86 239.02 185.404 239.74 184.492C240.46 183.58 240.82 181.972 240.82 179.668V166.528H245.932V179.128C245.932 183.064 245.14 185.932 243.556 187.732C241.996 189.532 239.704 190.432 236.68 190.432ZM251.37 190V166.528H259.83C261.078 166.528 262.242 166.648 263.322 166.888C264.426 167.128 265.386 167.536 266.202 168.112C267.018 168.664 267.666 169.408 268.146 170.344C268.626 171.28 268.866 172.444 268.866 173.836C268.866 175.564 268.482 176.992 267.714 178.12C266.97 179.224 265.962 180.052 264.69 180.604L270.018 190H264.078L259.578 181.54H256.662V190H251.37ZM256.662 177.328H259.398C260.79 177.328 261.846 177.04 262.566 176.464C263.31 175.864 263.682 174.988 263.682 173.836C263.682 172.684 263.31 171.88 262.566 171.424C261.846 170.968 260.79 170.74 259.398 170.74H256.662V177.328ZM273.448 190V166.528H278.74V185.536H288.028V190H273.448ZM298.856 190V164.764H304.148V170.956L303.896 174.16C304.568 173.56 305.348 173.008 306.236 172.504C307.124 171.976 308.18 171.712 309.404 171.712C311.348 171.712 312.752 172.348 313.616 173.62C314.504 174.892 314.948 176.656 314.948 178.912V190H309.656V179.596C309.656 178.3 309.476 177.412 309.116 176.932C308.78 176.452 308.228 176.212 307.46 176.212C306.788 176.212 306.212 176.368 305.732 176.68C305.252 176.968 304.724 177.388 304.148 177.94V190H298.856ZM327.414 190.432C326.142 190.432 324.954 190.228 323.85 189.82C322.746 189.388 321.786 188.776 320.97 187.984C320.154 187.168 319.518 186.184 319.062 185.032C318.606 183.88 318.378 182.56 318.378 181.072C318.378 179.632 318.618 178.336 319.098 177.184C319.578 176.008 320.202 175.024 320.97 174.232C321.762 173.416 322.662 172.792 323.67 172.36C324.678 171.928 325.722 171.712 326.802 171.712C328.074 171.712 329.178 171.928 330.114 172.36C331.074 172.792 331.866 173.392 332.49 174.16C333.138 174.928 333.618 175.84 333.93 176.896C334.242 177.928 334.398 179.056 334.398 180.28C334.398 180.76 334.374 181.216 334.326 181.648C334.278 182.08 334.23 182.404 334.182 182.62H323.49C323.73 183.916 324.258 184.876 325.074 185.5C325.914 186.1 326.934 186.4 328.134 186.4C329.406 186.4 330.69 186.004 331.986 185.212L333.75 188.416C332.838 189.04 331.818 189.532 330.69 189.892C329.586 190.252 328.494 190.432 327.414 190.432ZM323.454 179.128H329.898C329.898 178.12 329.67 177.304 329.214 176.68C328.758 176.056 327.99 175.744 326.91 175.744C326.07 175.744 325.326 176.02 324.678 176.572C324.054 177.124 323.646 177.976 323.454 179.128ZM338.055 190V172.144H342.375L342.735 175.276H342.879C343.527 174.052 344.307 173.152 345.219 172.576C346.131 172 347.043 171.712 347.955 171.712C348.459 171.712 348.867 171.748 349.179 171.82C349.515 171.868 349.815 171.952 350.079 172.072L349.215 176.644C348.879 176.548 348.567 176.476 348.279 176.428C347.991 176.38 347.655 176.356 347.271 176.356C346.599 176.356 345.891 176.596 345.147 177.076C344.427 177.556 343.827 178.408 343.347 179.632V190H338.055ZM360.039 190.432C358.767 190.432 357.579 190.228 356.475 189.82C355.371 189.388 354.411 188.776 353.595 187.984C352.779 187.168 352.143 186.184 351.687 185.032C351.231 183.88 351.003 182.56 351.003 181.072C351.003 179.632 351.243 178.336 351.723 177.184C352.203 176.008 352.827 175.024 353.595 174.232C354.387 173.416 355.287 172.792 356.295 172.36C357.303 171.928 358.347 171.712 359.427 171.712C360.699 171.712 361.803 171.928 362.739 172.36C363.699 172.792 364.491 173.392 365.115 174.16C365.763 174.928 366.243 175.84 366.555 176.896C366.867 177.928 367.023 179.056 367.023 180.28C367.023 180.76 366.999 181.216 366.951 181.648C366.903 182.08 366.855 182.404 366.807 182.62H356.115C356.355 183.916 356.883 184.876 357.699 185.5C358.539 186.1 359.559 186.4 360.759 186.4C362.031 186.4 363.315 186.004 364.611 185.212L366.375 188.416C365.463 189.04 364.443 189.532 363.315 189.892C362.211 190.252 361.119 190.432 360.039 190.432ZM356.079 179.128H362.523C362.523 178.12 362.295 177.304 361.839 176.68C361.383 176.056 360.615 175.744 359.535 175.744C358.695 175.744 357.951 176.02 357.303 176.572C356.679 177.124 356.271 177.976 356.079 179.128Z" fill="#344FA1" fill-opacity="0.6"/>
<rect x="131.5" y="302.5" width="298" height="27.7554" rx="13.8777" fill="white" fill-opacity="0.4" stroke="#3F72AF" stroke-dasharray="5 5"/>
<path d="M183.768 320.048C183.419 320.471 182.938 320.683 182.322 320.683C181.756 320.683 181.323 320.52 181.023 320.195C180.727 319.869 180.576 319.392 180.569 318.764V315.302H181.98V318.715C181.98 319.265 182.231 319.54 182.732 319.54C183.211 319.54 183.54 319.374 183.719 319.042V315.302H185.135V320.585H183.807L183.768 320.048ZM190.955 317.992C190.955 318.806 190.77 319.459 190.398 319.95C190.031 320.439 189.533 320.683 188.904 320.683C188.37 320.683 187.939 320.497 187.61 320.126V322.616H186.199V315.302H187.508L187.557 315.82C187.898 315.409 188.344 315.204 188.895 315.204C189.546 315.204 190.052 315.445 190.413 315.927C190.774 316.409 190.955 317.073 190.955 317.919V317.992ZM189.544 317.89C189.544 317.398 189.456 317.019 189.28 316.752C189.108 316.485 188.855 316.352 188.523 316.352C188.081 316.352 187.776 316.521 187.61 316.86V319.023C187.783 319.371 188.09 319.545 188.533 319.545C189.207 319.545 189.544 318.993 189.544 317.89ZM193.323 320.585H191.907V313.085H193.323V320.585ZM194.271 317.895C194.271 317.371 194.371 316.904 194.573 316.493C194.775 316.083 195.065 315.766 195.442 315.541C195.823 315.317 196.264 315.204 196.766 315.204C197.479 315.204 198.06 315.422 198.509 315.859C198.961 316.295 199.214 316.887 199.266 317.636L199.275 317.997C199.275 318.808 199.049 319.459 198.597 319.95C198.144 320.439 197.537 320.683 196.775 320.683C196.014 320.683 195.405 320.439 194.949 319.95C194.497 319.462 194.271 318.798 194.271 317.958V317.895ZM195.682 317.997C195.682 318.499 195.776 318.883 195.965 319.15C196.154 319.413 196.424 319.545 196.775 319.545C197.117 319.545 197.384 319.415 197.576 319.155C197.768 318.891 197.864 318.471 197.864 317.895C197.864 317.403 197.768 317.022 197.576 316.752C197.384 316.482 197.114 316.347 196.766 316.347C196.421 316.347 196.154 316.482 195.965 316.752C195.776 317.019 195.682 317.434 195.682 317.997ZM203.206 320.585C203.141 320.458 203.094 320.3 203.064 320.112C202.723 320.492 202.278 320.683 201.731 320.683C201.214 320.683 200.784 320.533 200.442 320.234C200.104 319.934 199.935 319.557 199.935 319.101C199.935 318.541 200.141 318.111 200.555 317.812C200.971 317.512 201.572 317.361 202.356 317.358H203.006V317.055C203.006 316.811 202.942 316.615 202.815 316.469C202.692 316.323 202.495 316.249 202.225 316.249C201.987 316.249 201.8 316.306 201.663 316.42C201.53 316.534 201.463 316.69 201.463 316.889H200.052C200.052 316.583 200.146 316.3 200.335 316.039C200.524 315.779 200.791 315.575 201.136 315.429C201.481 315.279 201.868 315.204 202.298 315.204C202.949 315.204 203.465 315.369 203.846 315.698C204.23 316.023 204.422 316.482 204.422 317.074V319.365C204.425 319.866 204.495 320.245 204.632 320.502V320.585H203.206ZM202.039 319.604C202.247 319.604 202.439 319.558 202.615 319.467C202.791 319.373 202.921 319.247 203.006 319.091V318.183H202.479C201.772 318.183 201.396 318.427 201.351 318.915L201.346 318.998C201.346 319.174 201.408 319.319 201.531 319.433C201.655 319.547 201.824 319.604 202.039 319.604ZM205.286 317.905C205.286 317.081 205.47 316.425 205.838 315.937C206.209 315.448 206.715 315.204 207.356 315.204C207.871 315.204 208.296 315.396 208.631 315.781V313.085H210.047V320.585H208.772L208.704 320.024C208.353 320.463 207.9 320.683 207.347 320.683C206.725 320.683 206.225 320.439 205.848 319.95C205.473 319.459 205.286 318.777 205.286 317.905ZM206.697 318.007C206.697 318.502 206.784 318.881 206.956 319.145C207.129 319.408 207.379 319.54 207.708 319.54C208.144 319.54 208.452 319.356 208.631 318.989V316.904C208.455 316.536 208.151 316.352 207.718 316.352C207.037 316.352 206.697 316.904 206.697 318.007ZM216.692 320.585C216.627 320.458 216.58 320.3 216.551 320.112C216.209 320.492 215.765 320.683 215.218 320.683C214.7 320.683 214.271 320.533 213.929 320.234C213.59 319.934 213.421 319.557 213.421 319.101C213.421 318.541 213.628 318.111 214.041 317.812C214.458 317.512 215.058 317.361 215.843 317.358H216.492V317.055C216.492 316.811 216.429 316.615 216.302 316.469C216.178 316.323 215.981 316.249 215.711 316.249C215.473 316.249 215.286 316.306 215.149 316.42C215.016 316.534 214.949 316.69 214.949 316.889H213.538C213.538 316.583 213.632 316.3 213.821 316.039C214.01 315.779 214.277 315.575 214.622 315.429C214.967 315.279 215.354 315.204 215.784 315.204C216.435 315.204 216.951 315.369 217.332 315.698C217.716 316.023 217.908 316.482 217.908 317.074V319.365C217.911 319.866 217.981 320.245 218.118 320.502V320.585H216.692ZM215.525 319.604C215.734 319.604 215.926 319.558 216.102 319.467C216.277 319.373 216.408 319.247 216.492 319.091V318.183H215.965C215.258 318.183 214.882 318.427 214.837 318.915L214.832 318.998C214.832 319.174 214.894 319.319 215.018 319.433C215.141 319.547 215.311 319.604 215.525 319.604ZM220.291 315.302L220.335 315.912C220.713 315.44 221.219 315.204 221.854 315.204C222.413 315.204 222.83 315.369 223.104 315.698C223.377 316.026 223.517 316.518 223.523 317.172V320.585H222.112V317.206C222.112 316.907 222.047 316.69 221.917 316.557C221.787 316.42 221.57 316.352 221.268 316.352C220.87 316.352 220.573 316.521 220.374 316.86V320.585H218.963V315.302H220.291ZM226.57 318.588L227.547 315.302H229.061L226.937 321.406L226.819 321.684C226.504 322.374 225.983 322.719 225.257 322.719C225.052 322.719 224.843 322.688 224.632 322.626V321.557L224.847 321.562C225.114 321.562 225.312 321.521 225.442 321.44C225.576 321.358 225.68 321.223 225.755 321.034L225.921 320.6L224.07 315.302H225.589L226.57 318.588ZM232.449 320.585V316.337H231.663V315.302H232.449V315.058C232.456 314.394 232.659 313.883 233.06 313.525C233.463 313.163 234.031 312.983 234.764 312.983C235.203 312.983 235.737 313.079 236.365 313.271L236.16 314.438C235.841 314.343 235.594 314.283 235.418 314.257C235.242 314.228 235.053 314.213 234.852 314.213C234.194 314.213 233.865 314.504 233.865 315.087V315.302H234.905V316.337H233.865V320.585H232.449ZM237.024 320.585H235.608V315.302H237.024V320.585ZM239.681 320.585H238.265V313.085H239.681V320.585ZM243.279 320.683C242.505 320.683 241.873 320.445 241.385 319.97C240.9 319.495 240.657 318.862 240.657 318.071V317.934C240.657 317.403 240.76 316.93 240.965 316.513C241.17 316.093 241.46 315.771 241.834 315.546C242.212 315.318 242.641 315.204 243.123 315.204C243.846 315.204 244.414 315.432 244.827 315.888C245.244 316.344 245.452 316.99 245.452 317.826V318.403H242.088C242.133 318.748 242.27 319.024 242.498 319.233C242.729 319.441 243.021 319.545 243.372 319.545C243.916 319.545 244.34 319.348 244.646 318.954L245.34 319.731C245.128 320.03 244.842 320.265 244.48 320.434C244.119 320.6 243.719 320.683 243.279 320.683ZM243.118 316.347C242.838 316.347 242.61 316.441 242.435 316.63C242.262 316.819 242.151 317.089 242.103 317.441H244.065V317.328C244.059 317.016 243.974 316.775 243.812 316.606C243.649 316.433 243.418 316.347 243.118 316.347ZM250.438 314.003V315.302H251.341V316.337H250.438V318.974C250.438 319.169 250.475 319.309 250.55 319.394C250.625 319.478 250.768 319.521 250.979 319.521C251.136 319.521 251.274 319.509 251.395 319.487V320.556C251.118 320.641 250.833 320.683 250.54 320.683C249.55 320.683 249.046 320.183 249.026 319.184V316.337H248.255V315.302H249.026V314.003H250.438ZM254.1 318.588L255.076 315.302H256.59L254.466 321.406L254.349 321.684C254.033 322.374 253.512 322.719 252.786 322.719C252.581 322.719 252.373 322.688 252.161 322.626V321.557L252.376 321.562C252.643 321.562 252.841 321.521 252.972 321.44C253.105 321.358 253.209 321.223 253.284 321.034L253.45 320.6L251.6 315.302H253.118L254.1 318.588ZM261.902 317.992C261.902 318.806 261.717 319.459 261.346 319.95C260.978 320.439 260.48 320.683 259.852 320.683C259.318 320.683 258.886 320.497 258.558 320.126V322.616H257.146V315.302H258.455L258.504 315.82C258.846 315.409 259.292 315.204 259.842 315.204C260.493 315.204 260.999 315.445 261.36 315.927C261.722 316.409 261.902 317.073 261.902 317.919V317.992ZM260.491 317.89C260.491 317.398 260.403 317.019 260.228 316.752C260.055 316.485 259.803 316.352 259.471 316.352C259.028 316.352 258.724 316.521 258.558 316.86V319.023C258.73 319.371 259.038 319.545 259.48 319.545C260.154 319.545 260.491 318.993 260.491 317.89ZM265.213 320.683C264.438 320.683 263.807 320.445 263.318 319.97C262.833 319.495 262.591 318.862 262.591 318.071V317.934C262.591 317.403 262.693 316.93 262.898 316.513C263.104 316.093 263.393 315.771 263.768 315.546C264.145 315.318 264.575 315.204 265.057 315.204C265.779 315.204 266.347 315.432 266.761 315.888C267.177 316.344 267.386 316.99 267.386 317.826V318.403H264.021C264.067 318.748 264.204 319.024 264.432 319.233C264.663 319.441 264.954 319.545 265.306 319.545C265.849 319.545 266.274 319.348 266.58 318.954L267.273 319.731C267.062 320.03 266.775 320.265 266.414 320.434C266.053 320.6 265.652 320.683 265.213 320.683ZM265.052 316.347C264.772 316.347 264.544 316.441 264.368 316.63C264.196 316.819 264.085 317.089 264.036 317.441H265.999V317.328C265.993 317.016 265.908 316.775 265.745 316.606C265.582 316.433 265.351 316.347 265.052 316.347Z" fill="#001C43"/>
<path d="M273.235 317.695C273.235 316.949 273.335 316.24 273.533 315.566C273.732 314.892 274.025 314.296 274.412 313.779C274.799 313.258 275.219 312.896 275.672 312.695L275.945 313.456C275.47 313.808 275.099 314.351 274.832 315.087C274.565 315.823 274.432 316.682 274.432 317.665V317.817C274.432 318.803 274.563 319.666 274.827 320.405C275.091 321.143 275.464 321.695 275.945 322.06L275.672 322.807C275.229 322.608 274.816 322.257 274.432 321.752C274.051 321.251 273.759 320.671 273.558 320.014C273.356 319.356 273.248 318.67 273.235 317.953V317.695ZM279.251 319.892C279.251 319.667 279.326 319.485 279.476 319.345C279.629 319.205 279.819 319.135 280.047 319.135C280.278 319.135 280.468 319.205 280.618 319.345C280.771 319.485 280.848 319.667 280.848 319.892C280.848 320.113 280.773 320.294 280.623 320.434C280.473 320.571 280.281 320.639 280.047 320.639C279.816 320.639 279.625 320.571 279.476 320.434C279.326 320.294 279.251 320.113 279.251 319.892ZM283.582 315.302V320.873C283.582 321.456 283.427 321.908 283.118 322.231C282.809 322.556 282.363 322.719 281.78 322.719C281.536 322.719 281.303 322.691 281.082 322.636V321.518C281.251 321.547 281.399 321.562 281.526 321.562C281.953 321.562 282.166 321.336 282.166 320.883V315.302H283.582ZM282.054 313.935C282.054 313.723 282.124 313.549 282.264 313.412C282.407 313.276 282.601 313.207 282.845 313.207C283.089 313.207 283.281 313.276 283.421 313.412C283.564 313.549 283.636 313.723 283.636 313.935C283.636 314.15 283.562 314.325 283.416 314.462C283.273 314.599 283.082 314.667 282.845 314.667C282.607 314.667 282.415 314.599 282.269 314.462C282.125 314.325 282.054 314.15 282.054 313.935ZM289.441 317.992C289.441 318.806 289.256 319.459 288.885 319.95C288.517 320.439 288.019 320.683 287.391 320.683C286.857 320.683 286.425 320.497 286.097 320.126V322.616H284.686V315.302H285.994L286.043 315.82C286.385 315.409 286.831 315.204 287.381 315.204C288.032 315.204 288.538 315.445 288.899 315.927C289.261 316.409 289.441 317.073 289.441 317.919V317.992ZM288.03 317.89C288.03 317.398 287.942 317.019 287.767 316.752C287.594 316.485 287.342 316.352 287.01 316.352C286.567 316.352 286.263 316.521 286.097 316.86V319.023C286.269 319.371 286.577 319.545 287.02 319.545C287.693 319.545 288.03 318.993 288.03 317.89ZM290.115 317.905C290.115 317.094 290.307 316.441 290.691 315.947C291.079 315.452 291.6 315.204 292.254 315.204C292.833 315.204 293.284 315.403 293.606 315.8L293.665 315.302H294.944V320.409C294.944 320.872 294.839 321.274 294.627 321.615C294.419 321.957 294.124 322.218 293.743 322.397C293.362 322.576 292.916 322.665 292.405 322.665C292.018 322.665 291.64 322.587 291.272 322.431C290.905 322.278 290.626 322.079 290.438 321.835L291.062 320.976C291.414 321.37 291.84 321.567 292.342 321.567C292.716 321.567 293.007 321.466 293.216 321.264C293.424 321.065 293.528 320.782 293.528 320.414V320.131C293.203 320.499 292.775 320.683 292.244 320.683C291.609 320.683 291.095 320.435 290.701 319.941C290.311 319.443 290.115 318.783 290.115 317.963V317.905ZM291.526 318.007C291.526 318.486 291.622 318.862 291.814 319.135C292.007 319.405 292.27 319.54 292.605 319.54C293.035 319.54 293.343 319.379 293.528 319.057V316.835C293.34 316.513 293.035 316.352 292.615 316.352C292.277 316.352 292.01 316.49 291.814 316.767C291.622 317.044 291.526 317.457 291.526 318.007ZM296.399 322.367L295.662 321.982L295.838 321.664C296.056 321.267 296.168 320.872 296.175 320.478V319.384H297.366L297.361 320.361C297.358 320.722 297.267 321.087 297.088 321.454C296.909 321.822 296.679 322.127 296.399 322.367ZM301.038 319.892C301.038 319.667 301.113 319.485 301.263 319.345C301.416 319.205 301.606 319.135 301.834 319.135C302.065 319.135 302.256 319.205 302.405 319.345C302.558 319.485 302.635 319.667 302.635 319.892C302.635 320.113 302.56 320.294 302.41 320.434C302.26 320.571 302.068 320.639 301.834 320.639C301.603 320.639 301.412 320.571 301.263 320.434C301.113 320.294 301.038 320.113 301.038 319.892ZM308.631 317.992C308.631 318.806 308.445 319.459 308.074 319.95C307.706 320.439 307.208 320.683 306.58 320.683C306.046 320.683 305.615 320.497 305.286 320.126V322.616H303.875V315.302H305.184L305.232 315.82C305.574 315.409 306.02 315.204 306.57 315.204C307.221 315.204 307.728 315.445 308.089 315.927C308.45 316.409 308.631 317.073 308.631 317.919V317.992ZM307.22 317.89C307.22 317.398 307.132 317.019 306.956 316.752C306.784 316.485 306.531 316.352 306.199 316.352C305.757 316.352 305.452 316.521 305.286 316.86V319.023C305.459 319.371 305.766 319.545 306.209 319.545C306.883 319.545 307.22 318.993 307.22 317.89ZM309.29 317.905C309.29 317.081 309.474 316.425 309.842 315.937C310.213 315.448 310.719 315.204 311.36 315.204C311.875 315.204 312.299 315.396 312.635 315.781V313.085H314.051V320.585H312.776L312.708 320.024C312.356 320.463 311.904 320.683 311.351 320.683C310.729 320.683 310.229 320.439 309.852 319.95C309.477 319.459 309.29 318.777 309.29 317.905ZM310.701 318.007C310.701 318.502 310.787 318.881 310.96 319.145C311.132 319.408 311.383 319.54 311.712 319.54C312.148 319.54 312.456 319.356 312.635 318.989V316.904C312.459 316.536 312.155 316.352 311.722 316.352C311.041 316.352 310.701 316.904 310.701 318.007ZM315.53 320.585V316.337H314.744V315.302H315.53V314.853C315.53 314.26 315.7 313.801 316.038 313.476C316.38 313.147 316.857 312.983 317.469 312.983C317.664 312.983 317.903 313.015 318.187 313.08L318.172 314.174C318.055 314.145 317.911 314.13 317.742 314.13C317.212 314.13 316.946 314.379 316.946 314.877V315.302H317.996V316.337H316.946V320.585H315.53ZM321.585 322.367L320.848 321.982L321.023 321.664C321.242 321.267 321.354 320.872 321.36 320.478V319.384H322.552L322.547 320.361C322.544 320.722 322.452 321.087 322.273 321.454C322.094 321.822 321.865 322.127 321.585 322.367ZM323.733 319.892C323.733 319.667 323.808 319.485 323.958 319.345C324.111 319.205 324.301 319.135 324.529 319.135C324.76 319.135 324.951 319.205 325.101 319.345C325.254 319.485 325.33 319.667 325.33 319.892C325.33 320.113 325.255 320.294 325.105 320.434C324.956 320.571 324.764 320.639 324.529 320.639C324.298 320.639 324.108 320.571 323.958 320.434C323.808 320.294 323.733 320.113 323.733 319.892ZM327.894 315.302L327.938 315.893C328.312 315.434 328.818 315.204 329.456 315.204C330.136 315.204 330.604 315.473 330.857 316.01C331.229 315.473 331.757 315.204 332.444 315.204C333.017 315.204 333.444 315.372 333.724 315.707C334.004 316.039 334.144 316.541 334.144 317.211V320.585H332.728V317.216C332.728 316.917 332.669 316.698 332.552 316.562C332.435 316.422 332.228 316.352 331.932 316.352C331.508 316.352 331.215 316.554 331.053 316.957L331.058 320.585H329.646V317.221C329.646 316.915 329.586 316.694 329.466 316.557C329.345 316.42 329.14 316.352 328.851 316.352C328.45 316.352 328.16 316.518 327.981 316.85V320.585H326.57V315.302H327.894ZM339.988 317.992C339.988 318.806 339.803 319.459 339.432 319.95C339.064 320.439 338.566 320.683 337.938 320.683C337.404 320.683 336.972 320.497 336.644 320.126V322.616H335.232V315.302H336.541L336.59 315.82C336.932 315.409 337.378 315.204 337.928 315.204C338.579 315.204 339.085 315.445 339.446 315.927C339.808 316.409 339.988 317.073 339.988 317.919V317.992ZM338.577 317.89C338.577 317.398 338.489 317.019 338.313 316.752C338.141 316.485 337.889 316.352 337.557 316.352C337.114 316.352 336.81 316.521 336.644 316.86V319.023C336.816 319.371 337.124 319.545 337.566 319.545C338.24 319.545 338.577 318.993 338.577 317.89ZM342.244 316.406H342.996C343.354 316.406 343.619 316.316 343.792 316.137C343.965 315.958 344.051 315.72 344.051 315.424C344.051 315.138 343.965 314.915 343.792 314.755C343.623 314.596 343.388 314.516 343.089 314.516C342.819 314.516 342.592 314.591 342.41 314.74C342.228 314.887 342.137 315.079 342.137 315.317H340.726C340.726 314.946 340.825 314.614 341.023 314.321C341.225 314.024 341.505 313.793 341.863 313.627C342.225 313.461 342.622 313.378 343.055 313.378C343.807 313.378 344.396 313.559 344.822 313.92C345.249 314.278 345.462 314.773 345.462 315.405C345.462 315.73 345.363 316.03 345.164 316.303C344.965 316.576 344.705 316.786 344.383 316.933C344.783 317.076 345.081 317.291 345.276 317.577C345.475 317.864 345.574 318.202 345.574 318.593C345.574 319.225 345.343 319.731 344.881 320.112C344.422 320.492 343.813 320.683 343.055 320.683C342.345 320.683 341.764 320.496 341.312 320.121C340.862 319.747 340.638 319.252 340.638 318.637H342.049C342.049 318.904 342.148 319.122 342.347 319.291C342.549 319.461 342.796 319.545 343.089 319.545C343.424 319.545 343.686 319.457 343.875 319.281C344.067 319.102 344.163 318.866 344.163 318.573C344.163 317.864 343.772 317.509 342.991 317.509H342.244V316.406ZM349.466 322.367L348.729 321.982L348.904 321.664C349.122 321.267 349.235 320.872 349.241 320.478V319.384H350.433L350.428 320.361C350.424 320.722 350.333 321.087 350.154 321.454C349.975 321.822 349.746 322.127 349.466 322.367ZM354.104 319.892C354.104 319.667 354.179 319.485 354.329 319.345C354.482 319.205 354.673 319.135 354.9 319.135C355.132 319.135 355.322 319.205 355.472 319.345C355.625 319.485 355.701 319.667 355.701 319.892C355.701 320.113 355.626 320.294 355.477 320.434C355.327 320.571 355.135 320.639 354.9 320.639C354.669 320.639 354.479 320.571 354.329 320.434C354.179 320.294 354.104 320.113 354.104 319.892ZM356.722 317.905C356.722 317.081 356.906 316.425 357.273 315.937C357.645 315.448 358.151 315.204 358.792 315.204C359.306 315.204 359.731 315.396 360.066 315.781V313.085H361.482V320.585H360.208L360.14 320.024C359.788 320.463 359.336 320.683 358.782 320.683C358.16 320.683 357.661 320.439 357.283 319.95C356.909 319.459 356.722 318.777 356.722 317.905ZM358.133 318.007C358.133 318.502 358.219 318.881 358.392 319.145C358.564 319.408 358.815 319.54 359.144 319.54C359.58 319.54 359.887 319.356 360.066 318.989V316.904C359.891 316.536 359.586 316.352 359.153 316.352C358.473 316.352 358.133 316.904 358.133 318.007ZM362.356 317.895C362.356 317.371 362.457 316.904 362.659 316.493C362.861 316.083 363.151 315.766 363.528 315.541C363.909 315.317 364.35 315.204 364.852 315.204C365.564 315.204 366.146 315.422 366.595 315.859C367.047 316.295 367.299 316.887 367.352 317.636L367.361 317.997C367.361 318.808 367.135 319.459 366.683 319.95C366.23 320.439 365.623 320.683 364.861 320.683C364.1 320.683 363.491 320.439 363.035 319.95C362.583 319.462 362.356 318.798 362.356 317.958V317.895ZM363.768 317.997C363.768 318.499 363.862 318.883 364.051 319.15C364.24 319.413 364.51 319.545 364.861 319.545C365.203 319.545 365.47 319.415 365.662 319.155C365.854 318.891 365.95 318.471 365.95 317.895C365.95 317.403 365.854 317.022 365.662 316.752C365.47 316.482 365.2 316.347 364.852 316.347C364.507 316.347 364.24 316.482 364.051 316.752C363.862 317.019 363.768 317.434 363.768 317.997ZM370.428 319.545C370.688 319.545 370.9 319.474 371.062 319.33C371.225 319.187 371.31 318.997 371.316 318.759H372.64C372.636 319.117 372.539 319.446 372.347 319.745C372.155 320.042 371.891 320.273 371.556 320.439C371.224 320.601 370.856 320.683 370.452 320.683C369.697 320.683 369.101 320.444 368.665 319.965C368.229 319.483 368.011 318.819 368.011 317.973V317.88C368.011 317.066 368.227 316.417 368.66 315.932C369.093 315.447 369.687 315.204 370.442 315.204C371.103 315.204 371.632 315.393 372.029 315.771C372.43 316.145 372.633 316.645 372.64 317.27H371.316C371.31 316.996 371.225 316.775 371.062 316.606C370.9 316.433 370.685 316.347 370.418 316.347C370.089 316.347 369.84 316.467 369.671 316.708C369.505 316.946 369.422 317.333 369.422 317.87V318.017C369.422 318.56 369.505 318.951 369.671 319.189C369.837 319.426 370.089 319.545 370.428 319.545ZM375.457 316.879L376.346 315.302H377.854L376.351 317.89L377.918 320.585H376.404L375.462 318.925L374.524 320.585H373.006L374.573 317.89L373.074 315.302H374.588L375.457 316.879ZM381.39 322.367L380.652 321.982L380.828 321.664C381.046 321.267 381.159 320.872 381.165 320.478V319.384H382.356L382.352 320.361C382.348 320.722 382.257 321.087 382.078 321.454C381.899 321.822 381.67 322.127 381.39 322.367ZM386.028 319.892C386.028 319.667 386.103 319.485 386.253 319.345C386.406 319.205 386.596 319.135 386.824 319.135C387.055 319.135 387.246 319.205 387.396 319.345C387.549 319.485 387.625 319.667 387.625 319.892C387.625 320.113 387.55 320.294 387.4 320.434C387.251 320.571 387.059 320.639 386.824 320.639C386.593 320.639 386.403 320.571 386.253 320.434C386.103 320.294 386.028 320.113 386.028 319.892ZM393.621 317.992C393.621 318.806 393.436 319.459 393.064 319.95C392.697 320.439 392.199 320.683 391.57 320.683C391.036 320.683 390.605 320.497 390.276 320.126V322.616H388.865V315.302H390.174L390.223 315.82C390.564 315.409 391.01 315.204 391.561 315.204C392.212 315.204 392.718 315.445 393.079 315.927C393.44 316.409 393.621 317.073 393.621 317.919V317.992ZM392.21 317.89C392.21 317.398 392.122 317.019 391.946 316.752C391.774 316.485 391.521 316.352 391.189 316.352C390.747 316.352 390.442 316.521 390.276 316.86V319.023C390.449 319.371 390.757 319.545 391.199 319.545C391.873 319.545 392.21 318.993 392.21 317.89ZM399.256 317.992C399.256 318.806 399.07 319.459 398.699 319.95C398.331 320.439 397.833 320.683 397.205 320.683C396.671 320.683 396.24 320.497 395.911 320.126V322.616H394.5V315.302H395.809L395.857 315.82C396.199 315.409 396.645 315.204 397.195 315.204C397.846 315.204 398.353 315.445 398.714 315.927C399.075 316.409 399.256 317.073 399.256 317.919V317.992ZM397.845 317.89C397.845 317.398 397.757 317.019 397.581 316.752C397.409 316.485 397.156 316.352 396.824 316.352C396.382 316.352 396.077 316.521 395.911 316.86V319.023C396.084 319.371 396.391 319.545 396.834 319.545C397.508 319.545 397.845 318.993 397.845 317.89ZM401.824 314.003V315.302H402.728V316.337H401.824V318.974C401.824 319.169 401.862 319.309 401.937 319.394C402.011 319.478 402.155 319.521 402.366 319.521C402.522 319.521 402.661 319.509 402.781 319.487V320.556C402.505 320.641 402.22 320.683 401.927 320.683C400.937 320.683 400.433 320.183 400.413 319.184V316.337H399.642V315.302H400.413V314.003H401.824ZM405.525 316.879L406.414 315.302H407.923L406.419 317.89L407.986 320.585H406.473L405.53 318.925L404.593 320.585H403.074L404.642 317.89L403.143 315.302H404.656L405.525 316.879ZM413.523 317.807C413.523 318.543 413.418 319.251 413.206 319.931C412.994 320.611 412.69 321.212 412.293 321.733C411.896 322.253 411.471 322.612 411.019 322.807L410.745 322.06C411.207 321.712 411.572 321.174 411.839 320.448C412.106 319.723 412.244 318.888 412.254 317.944V317.685C412.254 316.712 412.12 315.854 411.854 315.112C411.59 314.369 411.22 313.813 410.745 313.442L411.019 312.695C411.461 312.887 411.878 313.235 412.269 313.74C412.662 314.244 412.967 314.832 413.182 315.502C413.4 316.173 413.514 316.868 413.523 317.587V317.807Z" fill="#3F72AF" fill-opacity="0.73"/>
<path d="M162.474 321.969C162.474 322.41 162.831 322.768 163.272 322.768H174.635C175.076 322.768 175.433 322.41 175.433 321.969C175.433 321.528 175.076 321.17 174.635 321.17H163.272C162.831 321.17 162.474 321.528 162.474 321.969ZM164.517 313.017C163.813 313.624 164.243 314.78 165.173 314.78C165.727 314.78 166.176 315.229 166.176 315.784V317.573C166.176 318.677 167.072 319.573 168.176 319.573H169.731C170.835 319.573 171.731 318.677 171.731 317.573V315.784C171.731 315.229 172.18 314.78 172.734 314.78C173.664 314.78 174.094 313.624 173.39 313.017L170.26 310.316C169.509 309.668 168.398 309.668 167.647 310.316L164.517 313.017Z" fill="#001C43"/>
<defs>
<filter id="filter0_b" x="410" y="286" width="104" height="97" filterUnits="userSpaceOnUse" color-interpolation-filters="sRGB">
<feFlood flood-opacity="0" result="BackgroundImageFix"/>
<feGaussianBlur in="BackgroundImage" stdDeviation="2"/>
<feComposite in2="SourceAlpha" operator="in" result="effect1_backgroundBlur"/>
<feBlend mode="normal" in="SourceGraphic" in2="effect1_backgroundBlur" result="shape"/>
</filter>
<filter id="filter1_b" x="-4" y="-4" width="97" height="96" filterUnits="userSpaceOnUse" color-interpolation-filters="sRGB">
<feFlood flood-opacity="0" result="BackgroundImageFix"/>
<feGaussianBlur in="BackgroundImage" stdDeviation="2"/>
<feComposite in2="SourceAlpha" operator="in" result="effect1_backgroundBlur"/>
<feBlend mode="normal" in="SourceGraphic" in2="effect1_backgroundBlur" result="shape"/>
</filter>
<filter id="filter2_b" x="-19" y="2" width="623" height="440" filterUnits="userSpaceOnUse" color-interpolation-filters="sRGB">
<feFlood flood-opacity="0" result="BackgroundImageFix"/>
<feGaussianBlur in="BackgroundImage" stdDeviation="10"/>
<feComposite in2="SourceAlpha" operator="in" result="effect1_backgroundBlur"/>
<feBlend mode="normal" in="SourceGraphic" in2="effect1_backgroundBlur" result="shape"/>
</filter>
</defs>
</svg>
